<svg xmlns="http://www.w3.org/2000/svg" viewBox="0 0 49 48">
  <style>
    @keyframes spinner__rotate {
      from {
        transform: rotate(0deg);
      }
      to {
        transform: rotate(360deg);
      }
    }

    .st0 {
      fill: transparent;
    }

    .st1 {
      fill: none;
      stroke: #F2F2F2;
      stroke-width: 2;
      stroke-miterlimit: 10;
    }

    .st2 {
      fill: none;
      stroke: #D1030F;
      stroke-width: 2;
      stroke-linecap: round;
      stroke-miterlimit: 10;
    }

    .st3 {
      fill: #D1030F;
    }

    .elements-animated {
      animation: spinner__rotate 0.8s cubic-bezier(0.48, 0.24, 0.6, 0.12) infinite;
      transform-origin: center;
    }
  </style>

  <g class="elements-static">
    <circle class="st0" r="22.2" cy="24" cx="24.5"/>
    <path class="st3" d="m25.1,22.2l1.9,5.3l3.9,-1.3c-0.6,1.9 -2.2,3.3 -4.1,3.9c-4.6,1.6 -7.1,-1.3 -8,-3.9c-1.1,-3.2 -0.1,-6.7 3.9,-8c1.9,-0.8 4.1,-0.5 5.8,0.7l7.9,-4c-2.5,-4.3 -8,-7.7 -16.6,-4.8c-9.6,3.2 -12,11.4 -9.3,18.9c2.1,6 8.1,12.8 19,9.1c7.9,-2.7 10.4,-8.4 10.1,-13.9c-0.2,-2.2 -0.6,-4.3 -1.4,-6.3l-13.1,4.3z"/>
  </g>
  <g class="elements-animated">
    <circle class="st1" r="22.2" cy="24" cx="24.5"/>
    <path class="st2" d="M9.9 7.3C5.1 11.5 2.3 17.6 2.3 24" />
  </g>
</svg>
