<?xml version="1.0" encoding="utf-8"?>
<!-- Generator: Adobe Illustrator 17.0.0, SVG Export Plug-In . SVG Version: 6.00 Build 0)  -->
<!DOCTYPE svg PUBLIC "-//W3C//DTD SVG 1.1//EN" "http://www.w3.org/Graphics/SVG/1.1/DTD/svg11.dtd">
<svg version="1.1" id="compras" xmlns="http://www.w3.org/2000/svg" xmlns:xlink="http://www.w3.org/1999/xlink" x="0px" y="0px"
	 width="612px" height="792px" viewBox="0 0 612 792" enable-background="new 0 0 612 792" xml:space="preserve">
<title>compras</title>
<g>
	<path d="M203.588,335.204c0.137,0.003,0.275,0.004,0.412,0.004c11.267,0,20.4-9.133,20.4-20.4V232.8
		c0-45.066,36.534-81.6,81.6-81.6c45.066,0,81.6,36.534,81.6,81.6v81.6c0,11.267,9.133,20.4,20.4,20.4s20.4-9.133,20.4-20.4v-81.6
		c0-67.6-54.8-122.4-122.4-122.4s-122.4,54.8-122.4,122.4v81.6C183.375,325.664,192.324,334.979,203.588,335.204z"/>
	<path d="M549.984,291.96c-1.015-10.158-9.382-18.002-19.584-18.36h-81.6v40.8c0,22.533-18.267,40.8-40.8,40.8
		c-22.533,0-40.8-18.267-40.8-40.8v-40.8H244.8v40.8c0,22.533-18.267,40.8-40.8,40.8s-40.8-18.267-40.8-40.8v-40.8H81.6
		c-10.376-0.075-19.155,7.651-20.4,17.952l-27.336,244.8h542.64L549.984,291.96z"/>
	<path d="M591.192,659.16L579.36,559.2H32.64l-11.424,98.736c-0.653,5.754,1.121,11.52,4.896,15.912
		c3.639,4.473,8.942,7.271,14.688,7.752h530.4c5.705-0.058,11.146-2.411,15.096-6.528
		C590.071,670.68,591.845,664.914,591.192,659.16z"/>
</g>
</svg>
