<?xml version="1.0" encoding="utf-8"?>
<!-- Generated by IcoMoon.io -->
<!DOCTYPE svg PUBLIC "-//W3C//DTD SVG 1.1//EN" "http://www.w3.org/Graphics/SVG/1.1/DTD/svg11.dtd">
<svg version="1.1" xmlns="http://www.w3.org/2000/svg" xmlns:xlink="http://www.w3.org/1999/xlink" width="1086" height="1024" viewBox="0 0 1086 1024">
<g id="icomoon-ignore">
</g>
<path fill="#000" d="M1084.709 877.714l-60.709-489.326c-12.338-81.883-81.239-144.237-165.094-146.282l-68.964-0.004v-2.926c0-134.72-109.212-243.931-243.931-243.931s-243.931 109.212-243.931 243.931v4.389h-71.68c-84.064 2.049-152.965 64.403-165.186 145.341l-65.214 488.808c-1.163 6.404-1.827 13.775-1.827 21.302 0 69.077 55.998 125.074 125.074 125.074 1.672 0 3.335-0.033 4.991-0.098l829.202 0.007c1.197 0.041 2.604 0.065 4.017 0.065 69.077 0 125.074-55.998 125.074-125.074 0-7.517-0.663-14.879-1.934-22.031zM380.343 239.177c0-89.678 72.699-162.377 162.377-162.377s162.377 72.699 162.377 162.377v4.389h-324.754zM956.709 965.486h-827.977c-2.355 0.295-5.080 0.464-7.845 0.464-36.76 0-66.56-29.8-66.56-66.56 0-4.564 0.459-9.020 1.334-13.326l64.293-489.629c9.062-53.616 54.986-93.998 110.408-94.354h68.792v96.549c2.788 20.15 19.899 35.499 40.594 35.499s37.806-15.349 40.57-35.284l0.024-96.763h325.486v96.549c2.788 20.15 19.899 35.499 40.594 35.499s37.806-15.349 40.57-35.284l0.024-96.763h68.754c54.033 1.738 98.337 41.275 107.421 92.946l64.464 490.734c0.861 4.015 1.353 8.627 1.353 13.355 0 36.76-29.8 66.56-66.56 66.56-1.763 0-3.511-0.069-5.24-0.203z"></path>
<path fill="#000" d="M523.703 828.709h-205.531c-0.218-0.009-0.474-0.015-0.731-0.015-10.099 0-18.286 8.187-18.286 18.286 0 0.005 0 0.010 0 0.015v8.045c0 0.004 0 0.009 0 0.015 0 10.099 8.187 18.286 18.286 18.286 0.257 0 0.513-0.005 0.768-0.016l205.495 0.001c0.218 0.009 0.474 0.015 0.731 0.015 10.099 0 18.286-8.187 18.286-18.286 0-0.005 0-0.010 0-0.015v-8.045c-1.597-9.631-9.285-17.070-18.91-18.275z"></path>
<path fill="#000" d="M231.131 828.709h-59.246c-0.218-0.009-0.474-0.015-0.731-0.015-10.099 0-18.286 8.187-18.286 18.286 0 0.005 0 0.010 0 0.015v8.045c0 0.004 0 0.009 0 0.015 0 10.099 8.187 18.286 18.286 18.286 0.257 0 0.513-0.005 0.768-0.016l59.209 0.001c0.218 0.009 0.474 0.015 0.731 0.015 10.099 0 18.286-8.187 18.286-18.286 0-0.005 0-0.010 0-0.015v-8.045c-1.597-9.631-9.285-17.070-18.91-18.275z"></path>
</svg>
