<?xml version="1.0" encoding="utf-8"?>
<!-- Generator: Adobe Illustrator 17.0.0, SVG Export Plug-In . SVG Version: 6.00 Build 0)  -->
<!DOCTYPE svg PUBLIC "-//W3C//DTD SVG 1.1//EN" "http://www.w3.org/Graphics/SVG/1.1/DTD/svg11.dtd">
<svg version="1.1" id="clock" xmlns="http://www.w3.org/2000/svg" xmlns:xlink="http://www.w3.org/1999/xlink" x="0px" y="0px"
	 width="612px" height="792px" viewBox="0 0 612 792" enable-background="new 0 0 612 792" xml:space="preserve">
<title>clock</title>
<g>
	<path d="M306,114.072C150.295,114.072,24.072,240.295,24.072,396S150.295,677.928,306,677.928S587.928,551.704,587.928,396
		C587.703,240.389,461.611,114.297,306,114.072z M306,595.92c-110.413,0-199.92-89.507-199.92-199.92S195.587,196.08,306,196.08
		S505.92,285.587,505.92,396S416.413,595.92,306,595.92z"/>
	<path d="M343.738,255.003c-0.874-0.16-1.763-0.217-2.65-0.171h-23.256c-6.305-0.229-11.602,4.696-11.832,11.001
		c-0.01,0.277-0.01,0.554,0,0.831V396h-81.6c-6.305-0.229-11.603,4.696-11.832,11.001c-0.01,0.277-0.01,0.554,0,0.831v23.664
		c-0.229,6.305,4.696,11.603,11.001,11.832c0.277,0.01,0.554,0.01,0.831,0h116.688c6.305,0.229,11.603-4.696,11.832-11.001
		c0.01-0.277,0.01-0.554,0-0.831v-163.2C354.055,262.09,349.944,256.138,343.738,255.003z"/>
</g>
</svg>
