<?xml version="1.0" encoding="utf-8"?>
<!-- Generated by IcoMoon.io -->
<!DOCTYPE svg PUBLIC "-//W3C//DTD SVG 1.1//EN" "http://www.w3.org/Graphics/SVG/1.1/DTD/svg11.dtd">
<svg version="1.1" xmlns="http://www.w3.org/2000/svg" xmlns:xlink="http://www.w3.org/1999/xlink" width="1247" height="1024" viewBox="0 0 1247 1024">
<g id="icomoon-ignore">
</g>
<path fill="#000" d="M1144.209 235.965c22.261 0 40.070 8.904 57.878 22.261 13.357 17.809 22.261 35.617 22.261 57.878v605.496c0 22.261-8.904 40.070-22.261 57.878s-35.617 22.261-57.878 22.261h-792.487c-22.261 0-40.070-8.904-57.878-22.261s-22.261-35.617-22.261-57.878v-605.496c0-22.261 8.904-40.070 22.261-57.878 17.809-13.357 35.617-22.261 57.878-22.261h792.487zM351.722 298.296c-4.452 0-8.904 0-8.904 4.452-4.452 4.452-8.904 8.904-8.904 13.357v111.304h823.652v-111.304c0-4.452 0-8.904-4.452-13.357s-8.904-4.452-8.904-4.452h-792.487zM1144.209 939.409c4.452 0 8.904 0 8.904-4.452s4.452-8.904 4.452-13.357v-302.748h-823.652v302.748c0 4.452 0 8.904 4.452 13.357s8.904 4.452 8.904 4.452h796.939zM400.696 877.078v-62.33h124.661v62.33h-124.661zM587.687 877.078v-62.33h191.443v62.33h-191.443z"></path>
<path fill="#000" d="M80.139 235.965c0-89.043 0-155.826 0-155.826s779.13 0 779.13 0v75.687h75.687v-75.687c0-44.522-35.617-80.139-80.139-80.139h-774.678c-44.522 0-80.139 35.617-80.139 80.139v587.687c0 44.522 35.617 80.139 80.139 80.139h102.4v-80.139c0 0-102.4 0-102.4 0s0-89.043 0-195.896h253.774v-204.8l22.261-31.165h-276.035z"></path>
</svg>
