<svg xmlns="http://www.w3.org/2000/svg" viewBox="0 0 15 14" enable-background="new 0 0 15 14"><style type="text/css">.st0{fill:#1C1C1B;}</style><title>shipping</title><path class="st0" d="M4.7 9c-.7 0-1.3.6-1.3 1.3s.6 1.3 1.3 1.3c.7 0 1.3-.6 1.3-1.3 0-.7-.6-1.3-1.3-1.3zm0 1.9c-.3 0-.6-.3-.6-.6s.3-.6.6-.6.6.3.6.6-.3.6-.6.6zM11.7 9c-.8 0-1.3.6-1.3 1.3 0 .7.6 1.3 1.3 1.3.7 0 1.3-.6 1.3-1.3 0-.7-.6-1.3-1.3-1.3zm0 1.9c-.3 0-.6-.3-.6-.6s.3-.6.6-.6.6.3.6.6c-.1.3-.3.6-.6.6zM1.2 5.3h4.6c.2 0 .4-.2.4-.3v-.2c0-.2-.2-.3-.3-.3h-4.7c-.2-.1-.3.1-.3.3v.2c0 .1.1.3.3.3zM14.3 6.9c-.4 0-.8-.2-1-.6l-.6-1.3c-.2-.4-.6-.6-1.1-.7h-.9c-.1 0-.1 0-.1-.1v-1c0-.4-.3-.7-.6-.8h-7.199999999999999c-.5-.1-.9.2-1 .7v.7999999999999999c0 .1.1.2.2.2h4c.4 0 .7.3.7.7v.2c0 .4-.3.7-.7.7h-4c-.1 0-.2.1-.2.2v.1c0 .2.2.2.2.2h2.7c.4 0 .7.3.7.7v.2c0 .4-.3.7-.7.7h-2.7c-.1 0-.3.1-.3.2v1.7c0 .4.3.8.8.8h.4c.1 0 .1 0 .1-.1 0-.9.8-1.7 1.7-1.7.9 0 1.7.8 1.7 1.7v.1h3.4s.1 0 .1-.1c0-.9.8-1.7 1.7-1.7.9 0 1.7.8 1.7 1.7v.1h.9c.4 0 .8-.3.8-.7v-1.6c0-1.2-.3-1.2-.7-1.3zm-1.5-.1h-2.1c-.1 0-.1 0-.1-.1v-1.7s0-.1.1-.1h.6c.4 0 .8.2 1 .6l.6 1.1.1.2h-.2zM5 7.1v-.2c0-.2-.2-.3-.3-.3h-4.4c-.1 0-.3.1-.3.3v.2c0 .2.2.3.3.3h4.3c.2.1.4-.1.4-.3z"/></svg>