<?xml version="1.0" encoding="utf-8"?>
<!-- Generator: Adobe Illustrator 17.0.0, SVG Export Plug-In . SVG Version: 6.00 Build 0)  -->
<!DOCTYPE svg PUBLIC "-//W3C//DTD SVG 1.1//EN" "http://www.w3.org/Graphics/SVG/1.1/DTD/svg11.dtd">
<svg version="1.1" id="Layer_1" xmlns="http://www.w3.org/2000/svg" xmlns:xlink="http://www.w3.org/1999/xlink" x="0px" y="0px"
	 width="612px" height="792px" viewBox="0 0 612 792" enable-background="new 0 0 612 792" xml:space="preserve">
<title>envios</title>
<path d="M0,262.584h204v23.664H0V262.584z M46.92,309.504H204v23.664H46.92L46.92,309.504z M94.248,356.832H204v23.664H94.248
	V356.832z"/>
<path d="M491.64,326.232l-65.688-126.48H0v31.416h408l61.2,119.544l111.384,47.736v115.464h-17.952
	c-6.794-33.8-39.701-55.693-73.501-48.899c-24.664,4.957-43.942,24.235-48.899,48.899H201.96
	c-6.794-33.8-39.701-55.693-73.501-48.899c-24.664,4.957-43.942,24.235-48.899,48.899H63.648v-130.56H32.232v163.2H81.6
	c6.794,33.8,39.701,55.693,73.501,48.899c24.664-4.957,43.942-24.235,48.899-48.899h239.904c6.794,33.8,39.701,55.693,73.501,48.899
	c24.664-4.957,43.942-24.235,48.899-48.899H612V377.64L491.64,326.232z M141.168,560.832c-17.351,0-31.416-14.065-31.416-31.416
	c0-17.351,14.065-31.416,31.416-31.416s31.416,14.065,31.416,31.416C172.584,546.767,158.519,560.832,141.168,560.832
	C141.168,560.832,141.168,560.832,141.168,560.832z M502.248,560.832c-17.351,0-31.416-14.065-31.416-31.416
	S484.897,498,502.248,498c17.351,0,31.416,14.065,31.416,31.416l0,0C533.664,546.767,519.599,560.832,502.248,560.832
	L502.248,560.832L502.248,560.832z"/>
</svg>
