<svg xmlns="http://www.w3.org/2000/svg" viewBox="0 0 15 14" enable-background="new 0 0 15 14"><style type="text/css">.st0{fill:#1C1C1B;}</style><title>shop</title><path class="st0" d="M0 4.9c0 .9.6 1.6 1.4 1.8v6.2h-.9c-.3 0-.5.2-.5.5s.2.5.5.5h14.1c.3 0 .5-.2.5-.5s-.2-.5-.5-.5h-.9v-6.2c.8-.2 1.4-1 1.4-1.8v-.5h-15.1v.5zm2.3 1.8c.8-.2 1.4-1 1.4-1.8.1 1.1 1 1.9 2 1.9 1-.1 1.7-.9 1.7-1.9.1 1 1 1.8 2 1.7.9-.1 1.7-.8 1.7-1.7 0 .9.6 1.6 1.4 1.8v6.2h-10.2v-6.2zM13.1.2h-11.2l-1.9 3.8h15l-1.9-3.8zm-9.1 1l-1 1.9c0 .1-.1.1-.2.1h-.1c-.1 0-.2-.1-.1-.3l1-1.9c.1-.1.2-.2.3-.1.1.1.2.2.1.3zm1.9 0l-1 1.9c0 .1-.1.1-.2.1h-.1c-.1 0-.2-.1-.1-.3l.9-1.9c.1-.1.2-.2.3-.1.2.1.2.2.2.3zm1.8 1.8c0 .1-.1.2-.2.2s-.2-.1-.2-.2v-1.9c0-.1.1-.2.2-.2s.2.1.2.2v1.9zm2.7.2c-.1.1-.3 0-.3-.1l-1-1.9c0-.1 0-.3.2-.3.1 0 .2 0 .2.1l1 1.9c.1.1.1.2-.1.3zm1.9 0h-.1c-.1 0-.1 0-.2-.1l-.9-1.9c-.1-.1-.1-.2 0-.3s.3 0 .3.1l.9 1.9c.2.1.1.2 0 .3zM7.3 11.8c.9 0 1.6-.6 1.8-1.4.1-.3.1-.6.1-.9h-1.7v.8h.5c-.1.2-.4.4-.7.3-.4 0-.8-.4-.8-.8v-.1c0-.5.3-.9.8-.9h.1c.3 0 .5.1.6.4l1.1-.2c-.1-.9-.9-1.6-1.8-1.5-1.1 0-1.9.9-1.9 2v.2c-.1 1.1.6 2 1.7 2.1h.2z"/></svg>