<svg id="Capa_1" data-name="Capa 1" xmlns="http://www.w3.org/2000/svg" viewBox="0 0 50 50"><defs></defs><path d="M50.79,27c-0.37-1-2.27-.21-2.27-0.21L45,28.24h0l-2.85,1.12h0L40.46,30l-1.61.62-0.47.19h0l-0.23.09L38,31h0c-15.58,6.26-28.75,9.48-32.48,9.8a6.9,6.9,0,0,1-.82,0H4.48a1.88,1.88,0,0,1-.74-0.18h0l-0.06,0h0l-0.05,0h0l0,0v0l0,0v0l0,0V40l0,0v0l0,0,0,0,0,0,0-.06v0l0-.06v0l0-.06v0l0.05-.06h0l0.05-.06h0l0.06-.06H4L4,39.27H4l0.07-.05h0l0.07-.05h0l0.07-.05L4.34,39l0.24-.14v0c0-.16,0-0.31,0-0.46l-0.35.2h0l0,0,0,0,0,0L4,38.72,4,38.75l0,0-0.07,0,0,0-0.06,0,0,0-0.06,0L3.62,39,3.56,39,3.5,39l-0.06,0-0.06,0-0.06,0-0.07,0-0.05,0-0.07,0-0.06,0L3,39.37l-0.06,0-0.12.08-0.08.05-0.06,0-0.08.05-0.06,0-0.07.05-0.06,0-0.07.05-0.06,0-0.07.05L2.15,40,2.09,40,2,40.05,2,40.11l-0.06,0-0.07.06-0.06,0-0.09.07,0,0-0.1.08,0,0-0.07.06,0,0-0.06.06,0,0-0.06.05,0,0-0.05.05,0,0,0,0.05,0,0,0,0.06,0,0,0,0.06,0,0,0,0.07,0,0-0.06.09,0,0,0,0.06,0,0,0,0.05,0,0,0,0.05v0.21s0,0,0,0V42l0,0.05v0l0,0.07v0l0,0.05,0,0,0,0,0,0,0,0,0,0,0.05,0,0,0,0.06,0,0.05,0,0.07,0,0.06,0,0.09,0,0.06,0,0.11,0H1.46l0.18,0h0l0.17,0H1.91l0.14,0H3.91l0.37,0c0.58,0,1.19-.09,1.81-0.16,0.17,0.66.41,1.32,0.63,2,2.39,7.45,12.16,13.33,21.49,9.83A16.69,16.69,0,0,0,39,38.27a19.63,19.63,0,0,0-1-5.06l1.17-.47h0l1-.41,0,0,0,0h0l0.37-.15,1.54-.59-0.53,6.07,1-.37L45,30.44l4.23-1.71S51.16,28,50.79,27ZM24,46.12a7.5,7.5,0,0,1-8.71-4.55c-0.07-.18-0.19-0.53-0.24-0.71,2.59-.68,6-1.68,8.57-2.5L25,41.82l4.79-1.75A7.59,7.59,0,0,1,24,46.12Z"/><path d="M36,29.18c-0.84-1.41-6.48-9-17.58-6.62C6,25.81,5.41,37.7,5.65,39.55h0a75.14,75.14,0,0,0,9.24-2,7.49,7.49,0,0,1,7.42-6.29,7.21,7.21,0,0,1,4.42,1.42Z"/><polygon points="43.23 27.63 37.62 24.76 36.67 25.14 40.59 28.66 43.23 27.63"/></svg>