<?xml version="1.0" encoding="utf-8"?>
<!-- Generated by IcoMoon.io -->
<!DOCTYPE svg PUBLIC "-//W3C//DTD SVG 1.1//EN" "http://www.w3.org/Graphics/SVG/1.1/DTD/svg11.dtd">
<svg version="1.1" xmlns="http://www.w3.org/2000/svg" xmlns:xlink="http://www.w3.org/1999/xlink" width="2240" height="1024" viewBox="0 0 2240 1024">
<g id="icomoon-ignore">
</g>
<path fill="#000" d="M339.2 358.4c0 19.2 12.8 32 32 32h755.2c19.2 0 32-12.8 32-32s-12.8-38.4-32-38.4h-755.2c-19.2 0-32 19.2-32 38.4v0z"></path>
<path fill="#000" d="M1024 191.086c0-19.2-12.8-32-32-32h-755.2c-19.2 0-32 12.8-32 32s12.8 32 32 32h755.2c19.2 6.4 32-12.8 32-32v0z"></path>
<path fill="#000" d="M128 159.086h-70.4c-19.2 0-32 12.8-32 32s12.8 32 32 32h70.4c19.2 0 32-12.8 32-32s-12.8-32-32-32v0z"></path>
<path fill="#000" d="M898.517 514.438c0-19.2-12.8-32-32-32h-416c-19.2 0-32 12.8-32 32s12.8 32 32 32h416c19.2 6.4 32-12.8 32-32v0z"></path>
<path fill="#000" d="M354.517 482.438h-70.4c-19.2 0-32 12.8-32 32s12.8 32 32 32h70.4c19.2 0 32-12.8 32-32s-12.8-32-32-32v0z"></path>
<path fill="#000" d="M2233.6 569.6c0 0 0-6.4 0-6.4l-211.2-313.6-44.8-64c-32-51.2-76.8-64-108.8-64h-38.4c0 0 0 0 0 0h-160v-57.6c0-32-25.6-64-64-64h-12.8c0 0 0 0 0 0h-128c0 0 0 0 0 0h-985.6c-19.2 0-32 12.8-32 32s12.8 32 32 32h985.6c0 0 0 0 0 0h108.8c12.8 0 19.2 12.8 19.2 25.6 0 0 0 0 0 0v704c0 12.8-12.8 19.2-25.6 19.2v0c0 0 0 0 0 0v0h-608c-19.2-70.4-76.8-115.2-153.6-115.2-70.4 0-134.4 51.2-147.2 115.2h-83.2c0 0 0 0 0 0v0c-12.8 0-25.6-12.8-25.6-25.6 0 0 0 0 0 0v-147.2c0-6.4-6.4-12.8-12.8-12.8h-38.4c-6.4 0-12.8 6.4-12.8 12.8v179.2c0 38.4 32 70.4 70.4 70.4h108.8c19.2 64 76.8 115.2 153.6 115.2s134.4-51.2 153.6-115.2h819.2c19.2 64 76.8 115.2 153.6 115.2s134.4-51.2 153.6-115.2h70.4c0 0 0 0 0 0v0c38.4 0 70.4-32 70.4-70.4l-6.4-249.6zM902.4 851.2c0 44.8-38.4 83.2-83.2 83.2-51.2 0-83.2-38.4-83.2-83.2 0 0 0 0 0 0s0 0 0 0c0-44.8 38.4-83.2 83.2-83.2s83.2 38.4 83.2 83.2c0 0 0 0 0 0s0 0 0 0v0zM2022.4 851.2c0 44.8-38.4 83.2-83.2 83.2-51.2 0-83.2-38.4-83.2-83.2 0 0 0 0 0 0s0 0 0 0c0-44.8 38.4-83.2 83.2-83.2s83.2 38.4 83.2 83.2c0 0 0 0 0 0s0 0 0 0v0zM2163.2 736v0 64c0 0 0 0 0 0 0 12.8-6.4 19.2-19.2 19.2h-57.6c-19.2-70.4-76.8-115.2-147.2-115.2s-134.4 51.2-153.6 115.2h-89.6c0 0 0 0 0 0-12.8 0-25.6-12.8-25.6-25.6 0 0 0 0 0 0v-576c0 0 0 0 0 0 0-12.8 12.8-25.6 25.6-25.6 0 0 0 0 0 0v0h204.8l262.4 396.8v147.2z"></path>
</svg>
