<?xml version="1.0" encoding="utf-8"?>
<!-- Generated by IcoMoon.io -->
<!DOCTYPE svg PUBLIC "-//W3C//DTD SVG 1.1//EN" "http://www.w3.org/Graphics/SVG/1.1/DTD/svg11.dtd">
<svg version="1.1" xmlns="http://www.w3.org/2000/svg" xmlns:xlink="http://www.w3.org/1999/xlink" width="1570" height="1024" viewBox="0 0 1570 1024">
<g id="icomoon-ignore">
</g>
<path fill="#000" d="M628.053 716.8h314.027v-75.093h-102.4v-354.987h-95.573l-122.88 109.227 61.44 61.44c20.48-20.48 40.96-34.133 47.787-47.787v0 232.107h-102.4v75.093zM1044.48 512c0 34.133-6.827 75.093-20.48 116.053s-27.307 75.093-47.787 109.227-47.787 61.44-81.92 81.92c-34.133 20.48-75.093 34.133-116.053 34.133s-75.093-13.653-116.053-34.133c-34.133-20.48-61.44-47.787-81.92-81.92s-34.133-68.267-47.787-109.227c-13.653-40.96-20.48-75.093-20.48-116.053s6.827-75.093 20.48-116.053c13.653-40.96 27.307-75.093 47.787-109.227s47.787-61.44 81.92-81.92c34.133-20.48 75.093-34.133 116.053-34.133s75.093 13.653 116.053 34.133c34.133 20.48 61.44 47.787 81.92 81.92s34.133 68.267 47.787 109.227c13.653 40.96 20.48 81.92 20.48 116.053v0zM1467.733 716.8v-409.6c-54.613 0-109.227-20.48-150.187-61.44s-61.44-88.747-61.44-143.36h-942.080c0 54.613-20.48 102.4-61.44 143.36s-88.747 61.44-150.187 61.44v409.6c54.613 0 109.227 20.48 150.187 61.44s61.44 88.747 61.44 143.36h942.080c0-54.613 20.48-102.4 61.44-143.36s88.747-61.44 150.187-61.44v0zM1570.133 54.613v921.6c0 13.653-6.827 27.307-13.653 34.133s-20.48 13.653-34.133 13.653h-1467.733c-13.653 0-27.307-6.827-34.133-13.653s-13.653-20.48-13.653-34.133v-921.6c0-13.653 6.827-27.307 13.653-34.133s20.48-13.653 34.133-13.653h1467.733c13.653 0 27.307 6.827 34.133 13.653s13.653 13.653 13.653 34.133v0z"></path>
</svg>
