<?xml version="1.0" encoding="UTF-8"?>
<svg width="14px" height="16px" viewBox="0 0 14 16" version="1.1" xmlns="http://www.w3.org/2000/svg" xmlns:xlink="http://www.w3.org/1999/xlink">
    <!-- Generator: Sketch 41.2 (35397) - http://www.bohemiancoding.com/sketch -->
    <title> copy 3</title>
    <desc>Created with Sketch.</desc>
    <defs></defs>
    <g id="Symbols" stroke="none" stroke-width="1" fill="none" fill-rule="evenodd">
        <g id="FA/WebApps/fa-trash" transform="translate(0.000000, -1.000000)" fill="#333333">
            <path d="M5.5,13.4821429 L5.5,6.80357143 C5.5,6.71502932 5.47154046,6.64229939 5.41462054,6.58537946 C5.35770061,6.52845954 5.28497068,6.5 5.19642857,6.5 L4.58928571,6.5 C4.5007436,6.5 4.42801368,6.52845954 4.37109375,6.58537946 C4.31417382,6.64229939 4.28571429,6.71502932 4.28571429,6.80357143 L4.28571429,13.4821429 C4.28571429,13.570685 4.31417382,13.6434149 4.37109375,13.7003348 C4.42801368,13.7572547 4.5007436,13.7857143 4.58928571,13.7857143 L5.19642857,13.7857143 C5.28497068,13.7857143 5.35770061,13.7572547 5.41462054,13.7003348 C5.47154046,13.6434149 5.5,13.570685 5.5,13.4821429 Z M7.92857143,13.4821429 L7.92857143,6.80357143 C7.92857143,6.71502932 7.90011189,6.64229939 7.84319196,6.58537946 C7.78627204,6.52845954 7.71354211,6.5 7.625,6.5 L7.01785714,6.5 C6.92931503,6.5 6.85658511,6.52845954 6.79966518,6.58537946 C6.74274525,6.64229939 6.71428571,6.71502932 6.71428571,6.80357143 L6.71428571,13.4821429 C6.71428571,13.570685 6.74274525,13.6434149 6.79966518,13.7003348 C6.85658511,13.7572547 6.92931503,13.7857143 7.01785714,13.7857143 L7.625,13.7857143 C7.71354211,13.7857143 7.78627204,13.7572547 7.84319196,13.7003348 C7.90011189,13.6434149 7.92857143,13.570685 7.92857143,13.4821429 Z M10.3571429,13.4821429 L10.3571429,6.80357143 C10.3571429,6.71502932 10.3286833,6.64229939 10.2717634,6.58537946 C10.2148435,6.52845954 10.1421135,6.5 10.0535714,6.5 L9.44642857,6.5 C9.35788646,6.5 9.28515653,6.52845954 9.22823661,6.58537946 C9.17131668,6.64229939 9.14285714,6.71502932 9.14285714,6.80357143 L9.14285714,13.4821429 C9.14285714,13.570685 9.17131668,13.6434149 9.22823661,13.7003348 C9.28515653,13.7572547 9.35788646,13.7857143 9.44642857,13.7857143 L10.0535714,13.7857143 C10.1421135,13.7857143 10.2148435,13.7572547 10.2717634,13.7003348 C10.3286833,13.6434149 10.3571429,13.570685 10.3571429,13.4821429 Z M5.19642857,4.07142857 L9.44642857,4.07142857 L8.99107143,2.96149554 C8.94680037,2.90457561 8.89304347,2.86979173 8.82979911,2.85714286 L5.82254464,2.85714286 C5.75930028,2.86979173 5.70554338,2.90457561 5.66127232,2.96149554 L5.19642857,4.07142857 Z M14,4.375 L14,4.98214286 C14,5.07068497 13.9715405,5.14341489 13.9146205,5.20033482 C13.8577006,5.25725475 13.7849707,5.28571429 13.6964286,5.28571429 L12.7857143,5.28571429 L12.7857143,14.2790179 C12.7857143,14.8039461 12.6370923,15.2577176 12.3398438,15.640346 C12.0425952,16.0229744 11.6852699,16.2142857 11.2678571,16.2142857 L3.375,16.2142857 C2.9575872,16.2142857 2.6002619,16.0292987 2.30301339,15.6593192 C2.00576488,15.2893397 1.85714286,14.8418925 1.85714286,14.3169643 L1.85714286,5.28571429 L0.946428571,5.28571429 C0.857886462,5.28571429 0.785156535,5.25725475 0.728236607,5.20033482 C0.67131668,5.14341489 0.642857143,5.07068497 0.642857143,4.98214286 L0.642857143,4.375 C0.642857143,4.28645789 0.67131668,4.21372796 0.728236607,4.15680804 C0.785156535,4.09988811 0.857886462,4.07142857 0.946428571,4.07142857 L3.87779018,4.07142857 L4.54185268,2.48716518 C4.63671922,2.25316103 4.80747645,2.05394427 5.05412946,1.88950893 C5.30078248,1.72507358 5.55059397,1.64285714 5.80357143,1.64285714 L8.83928571,1.64285714 C9.09226317,1.64285714 9.34207466,1.72507358 9.58872768,1.88950893 C9.8353807,2.05394427 10.0061379,2.25316103 10.1010045,2.48716518 L10.765067,4.07142857 L13.6964286,4.07142857 C13.7849707,4.07142857 13.8577006,4.09988811 13.9146205,4.15680804 C13.9715405,4.21372796 14,4.28645789 14,4.375 Z" id="-copy-3"></path>
        </g>
    </g>
</svg>